<?xml version="1.0" ?><svg id="Layer_1" style="enable-background:new 0 0 91 91;" version="1.1" viewBox="0 0 91 91" xml:space="preserve" xmlns="http://www.w3.org/2000/svg" xmlns:xlink="http://www.w3.org/1999/xlink"><g><polygon points="40.4,38.6 40.4,49.8 52.5,49.8 52.5,38.6 46.4,34.7  "/><path d="M46.4,20c-12.6,0-22.9,10.3-22.9,22.9c0,10.4,7.2,19.6,17.2,22.2L45.3,77c0.2,0.5,0.6,0.8,1.2,0.8c0,0,0,0,0,0   c0.5,0,1-0.3,1.2-0.8l4.3-11.8c10.1-2.5,17.4-11.7,17.4-22.2C69.3,30.3,59.1,20,46.4,20z M60,43.5l-4.1-2.7v12.4H37V40.8l-4.1,2.7   L31,40.7l14.5-9.4c0.6-0.4,1.3-0.4,1.8,0l14.5,9.4L60,43.5z"/></g></svg>