<?xml version="1.0" standalone="no"?>
<!DOCTYPE svg PUBLIC "-//W3C//DTD SVG 20010904//EN"
 "http://www.w3.org/TR/2001/REC-SVG-20010904/DTD/svg10.dtd">
<svg version="1.0" xmlns="http://www.w3.org/2000/svg"
 width="474.000000pt" height="474.000000pt" viewBox="0 0 474.000000 474.000000"
 preserveAspectRatio="xMidYMid meet">
<metadata>
Created by potrace 1.11, written by Peter Selinger 2001-2013
</metadata>
<g transform="translate(0.000000,474.000000) scale(0.100000,-0.100000)"
fill="#000000" stroke="none">
<path d="M2208 4515 c-2 -1 -43 -6 -93 -10 -49 -4 -92 -8 -95 -10 -3 -2 -27
-6 -52 -9 -26 -3 -69 -11 -95 -17 -381 -91 -674 -230 -950 -452 l-62 -50 111
-106 c61 -58 128 -122 148 -141 20 -19 118 -112 216 -206 321 -307 284 -277
308 -259 69 49 189 119 250 144 296 123 639 113 923 -26 78 -38 189 -109 231
-148 15 -14 31 -25 35 -25 5 0 45 36 90 79 45 44 107 103 139 133 112 106 354
335 455 432 121 117 125 96 -42 220 -297 222 -651 372 -1000 425 -38 6 -88 13
-110 17 -41 6 -401 14 -407 9z"/>
<path d="M698 3808 c-78 -78 -205 -247 -270 -358 -199 -343 -293 -686 -292
-1070 1 -160 11 -243 60 -490 15 -73 93 -281 148 -395 89 -181 190 -332 321
-480 45 -50 60 -62 70 -52 12 11 235 224 464 442 58 55 144 137 191 182 47 45
97 93 112 106 25 23 26 26 11 39 -36 29 -135 174 -172 251 -90 189 -121 369
-97 576 13 116 71 294 118 363 10 14 18 29 18 34 0 4 25 41 56 82 l57 75 -73
68 c-40 38 -151 144 -247 236 -96 93 -203 194 -237 227 -33 32 -93 90 -132
128 l-71 70 -35 -34z"/>
<path d="M3885 3723 c-60 -58 -202 -194 -314 -302 -112 -108 -241 -231 -286
-274 l-83 -79 41 -61 c127 -192 179 -372 173 -602 -2 -71 -6 -140 -9 -153 -44
-178 -102 -313 -181 -420 -25 -34 -46 -66 -46 -71 0 -7 102 -106 364 -355 95
-90 389 -371 436 -416 26 -25 125 -119 220 -210 95 -91 197 -189 228 -218 l55
-53 46 11 46 11 -1 1017 c-1 559 -4 1035 -7 1057 -4 22 -12 74 -18 115 -33
228 -122 479 -249 700 -55 97 -170 259 -224 318 -19 20 -45 49 -58 64 l-23 27
-110 -106z"/>
<path d="M2965 1578 c-325 -233 -772 -264 -1140 -80 -38 19 -89 48 -112 64
l-42 29 -38 -35 c-21 -19 -81 -77 -134 -128 -121 -116 -444 -427 -552 -531
l-82 -78 40 -35 c328 -280 817 -477 1271 -510 87 -6 2142 -9 2148 -3 2 2 6 22
9 44 2 22 6 45 8 52 2 7 -12 27 -32 45 -21 18 -91 85 -156 148 -66 63 -206
198 -313 300 -106 102 -221 212 -255 245 -34 33 -147 141 -250 240 -104 99
-207 198 -229 220 -72 69 -64 68 -141 13z"/>
</g>
</svg>
